<?xml version="1.0" encoding="utf-8"?>
<!-- Generator: Adobe Illustrator 16.0.0, SVG Export Plug-In . SVG Version: 6.00 Build 0)  -->
<!DOCTYPE svg PUBLIC "-//W3C//DTD SVG 1.1//EN" "http://www.w3.org/Graphics/SVG/1.1/DTD/svg11.dtd">
<svg version="1.1" id="Layer_1" xmlns="http://www.w3.org/2000/svg" xmlns:xlink="http://www.w3.org/1999/xlink" x="0px" y="0px"
	 width="1000px" height="691.077px" viewBox="0 0 1000 691.077" enable-background="new 0 0 1000 691.077" xml:space="preserve">
<g>
	<path d="M40.398,691.077c-10.968,0-22.141-4.786-29.888-12.802c-7.209-7.46-10.83-16.927-10.473-27.379L0,254.69
		c0.098-11.103,7.729-21.033,19.443-25.318l0.234-0.072l53.741-13.086c1.61-0.392,1.93-0.849,1.933-0.853
		c-0.021-0.068-0.244-0.702-1.25-1.682l-2.888-2.813c-4.025-3.92-5.576-10.778-3.859-17.064c1.381-5.06,6.04-14.119,21.726-17.945
		l65.454-15.973l0.052,21.048l-20.657,5.03l0.042,36.283l-20.282,4.938l0.038-36.3l-17.747,4.322
		c-2.983,0.726-3.748,1.438-3.903,1.622c0.178,0.79,2.208,2.598,3.199,3.479l3.189,2.856c3.967,3.556,5.536,8.86,4.197,14.19
		c-2.093,8.337-10.469,15.049-22.405,17.955l-42.952,10.459c-10.254,2.448-15.055,7.866-15.12,17.052L22.17,649.155
		c-0.278,5.844,1.408,10.856,4.876,14.492c3.592,3.767,8.856,5.841,14.823,5.841c1.944,0,3.93-0.225,5.904-0.668l674.391-164.237
		l5.11,17.834L732.401,502l18.135-4.316l5.108,17.826l5.102-20.324l19.606-4.773l-15.356,61.202l-18.115,4.413l-5.109-17.838
		l-5.102,20.323l-18.206,4.428l-9.648-33.596l-660.7,160.872C45.642,690.79,43.054,691.077,40.398,691.077z M20.836,233.529
		c-9.918,3.674-16.372,11.976-16.453,21.18L4.419,650.97c-0.4,11.744,4.806,19.667,9.243,24.258
		c6.938,7.179,16.933,11.465,26.736,11.465c2.323,0,4.579-0.249,6.705-0.741l664.764-161.863l9.648,33.599l11.547-2.809l6.443-25.67
		l4.233-0.069l6.196,21.632l11.452-2.791l12.945-51.591l-9.979,2.43l-6.443,25.67l-4.233,0.07l-6.201-21.643l-11.472,2.731
		l-6.464,25.746l-4.232,0.07l-6.197-21.627L48.771,673.088c-2.327,0.521-4.636,0.783-6.902,0.783
		c-7.177,0-13.568-2.557-17.996-7.199c-4.304-4.514-6.408-10.623-6.085-17.672L17.8,262.803c0.079-11.229,6.295-18.39,18.476-21.298
		l42.943-10.457c10.327-2.514,17.5-8.033,19.19-14.763c0.949-3.778-0.098-7.372-2.872-9.858l-3.179-2.847
		c-2.495-2.221-5.322-4.738-4.556-7.812c0.733-2.944,4.425-4.162,7.138-4.823l23.174-5.643l-0.039,36.3l11.506-2.801l-0.042-36.283
		l20.652-5.028l-0.03-12.028l-60.045,14.653c-13.502,3.294-17.409,10.712-18.536,14.841c-1.512,5.539,0.261,10.405,2.689,12.77
		l2.888,2.813c2.643,2.573,2.767,4.692,2.405,6.017c-0.519,1.9-2.237,3.218-5.108,3.917L20.836,233.529z"/>
	<polygon fill-rule="evenodd" clip-rule="evenodd" points="198.387,442.642 40.229,481.158 40.229,262.507 392.677,176.663 
		392.55,216.235 117.849,283.128 117.849,306.3 198.387,286.688 198.387,349.491 117.818,369.097 117.849,399.314 198.387,379.702 
		198.387,442.642 	"/>
	<polygon fill-rule="evenodd" clip-rule="evenodd" points="221.05,437.126 221.014,281.178 279.623,266.905 306.938,320.563 
		334.284,253.595 392.55,239.407 392.55,395.364 334.284,409.554 334.284,353.618 306.938,416.209 279.283,367.011 279.283,422.942 
		221.05,437.126 	"/>
	<polygon fill-rule="evenodd" clip-rule="evenodd" points="401.476,174.539 401.457,185.263 416.427,181.617 416.427,210.418 
		436.365,205.585 436.326,176.771 455.568,172.085 455.568,200.889 473.467,196.529 473.467,179.421 491.732,174.973 
		491.735,192.082 509.593,187.733 509.593,148.208 491.735,152.559 491.735,167.825 473.467,172.273 473.467,157.007 
		401.476,174.539 	"/>
	<polygon fill-rule="evenodd" clip-rule="evenodd" points="519.214,145.865 519.214,185.39 564.517,174.375 564.517,162.196 
		539.285,168.375 539.285,163.394 564.517,157.286 564.517,150.089 539.285,156.246 539.285,151.699 564.517,145.536 
		564.533,134.814 519.214,145.865 	"/>
	<polygon fill-rule="evenodd" clip-rule="evenodd" points="579.726,193.827 640.841,178.945 640.841,334.899 579.726,349.784 
		579.726,193.827 	"/>
	<polygon fill-rule="evenodd" clip-rule="evenodd" points="841.556,130.065 961.461,100.622 961.461,143.143 902.687,157.458 
		902.687,175.49 961.461,161.176 961.461,189.473 902.687,203.757 902.643,223.535 961.461,209.267 961.461,256.952 
		841.572,286.091 841.556,130.065 	"/>
	<polygon fill-rule="evenodd" clip-rule="evenodd" points="579.726,170.638 579.687,131.157 961.435,38.174 961.461,77.719 
		579.726,170.638 	"/>
	<path fill-rule="evenodd" clip-rule="evenodd" d="M40.229,570.532v26.654l59.743-14.55c22.461-5.466,17.836-35.909,6.979-43.107
		l-17.228-13.194c-6.285-4.006-5.333-8.891,0.315-10.268l25.883-6.302v-28.225L67.71,493.28
		c-33.166,8.076-31.368,32.773-18.201,42.847l18.334,14.003c7.523,4.591,10.257,11.18,3.504,12.801L40.229,570.532L40.229,570.532z"
		/>
	<polygon fill-rule="evenodd" clip-rule="evenodd" points="144.456,571.804 177.923,563.656 177.923,494.663 198.387,489.684 
		198.387,461.458 123.945,479.586 123.909,507.819 144.456,502.817 144.456,571.804 	"/>
	<polygon fill-rule="evenodd" clip-rule="evenodd" points="300.225,436.657 334.284,428.364 334.284,525.583 300.23,533.875 
		300.225,436.657 	"/>
	<polygon fill-rule="evenodd" clip-rule="evenodd" points="509.593,482.889 509.593,456.235 475.378,464.567 475.378,452.019 
		509.593,443.688 509.593,424.093 475.378,432.424 475.378,422.229 509.593,413.897 509.593,385.677 442.902,401.915 
		442.885,499.132 509.593,482.889 	"/>
	<path fill-rule="evenodd" clip-rule="evenodd" d="M868.017,298.395l-26.461,6.442c-65.054,16.243-50.548,109.525,11.507,94.411
		l14.948-3.64l0.006-26.655l-14.678,3.574c-31.544,7.685-30.764-34.845-2.251-41.785l16.929-4.125V298.395L868.017,298.395z"/>
	<polygon fill-rule="evenodd" clip-rule="evenodd" points="961.461,390.523 961.461,430.084 40.229,654.417 40.229,614.856 
		961.461,390.523 	"/>
	<path fill-rule="evenodd" clip-rule="evenodd" d="M347.171,522.44l-0.002-97.213l30.126-7.336v35.832l19.23-40.512l34.648-8.438
		l-29.716,62.471c0,4.669,6.597,13.715,14.97,11.679l14.75-3.596l0.027,26.648l-21.097,5.14
		c-13.172,3.209-21.896-6.888-32.807-18.666l-0.024,26.659L347.171,522.44L347.171,522.44z"/>
	<path fill-rule="evenodd" clip-rule="evenodd" d="M519.015,453.939v26.655l59.748-14.55c22.455-5.467,17.321-35.186,6.977-43.108
		l-17.229-13.194c-5.919-4.53-5.333-8.89,0.316-10.268l25.88-6.301v-28.226l-48.208,11.739
		c-33.172,8.077-31.38,32.789-18.201,42.847l18.328,14.003c7.01,5.355,10.251,11.153,3.508,12.802L519.015,453.939L519.015,453.939z
		"/>
	<path fill-rule="evenodd" clip-rule="evenodd" d="M877.173,393.378l-0.006-97.213l30.128-7.336v35.83l19.23-40.513l34.936-8.509
		l-30.007,62.545c0,4.669,6.602,13.714,14.977,11.679l15.03-3.663v26.654l-21.354,5.2c-13.173,3.209-21.902-6.893-32.807-18.666
		l-0.027,26.66L877.173,393.378L877.173,393.378z"/>
	<path d="M772.651,549.765l15.289-61.2l33.115-8.065l15.311,53.637l-21.199,5.169l-2.313-8.227l-13.492,3.285l-2.344,9.354
		L772.651,549.765z M791.551,492.197l-12.881,51.559l14.735-3.657l2.349-9.368l20.175-4.912l2.313,8.227l12.659-3.087
		l-12.903-45.201L791.551,492.197z M836.632,534.186l-0.023-57.475l36.769-8.989c9.065-2.22,15.982,1.735,18.297,10.177
		c2.093,7.633-0.061,18.365-6.438,23.471l24.093-5.85c1.611-0.392,1.932-0.848,1.936-0.853c-0.021-0.067-0.244-0.702-1.25-1.685
		l-2.887-2.807c-4.033-3.928-5.584-10.798-3.861-17.097c1.385-5.06,6.048-14.114,21.724-17.917l40.17-9.743
		c14.059-3.409,14.046-11.725,14.027-24.313l-0.002-1.356l0.022-377.035c0-22.077-10.863-22.077-14.434-22.077
		c-1.939,0-4.109,0.288-6.445,0.857L259.811,191.597c-1.56,0.379-2.962,0.564-4.288,0.564c-3.432,0-6.462-1.258-9.958-3.147
		l-10.523-5.694l-0.036,14.315l-22.067,5.373l-0.028-57.36l36.725-8.893c9.077-2.198,15.99,1.765,18.302,10.205
		c2.089,7.625-0.071,18.35-6.452,23.45L955.555,1.393C959.349,0.469,963.058,0,966.578,0c19.987,0,33.417,15.163,33.417,37.732
		L1000,431.295c0,12.635-2.673,27.788-23.515,32.867l-44.479,10.832c-2.701,0.658-3.621,1.263-3.904,1.512
		c0.346,0.703,1.904,2.073,2.771,2.837c0.261,0.229,0.521,0.458,0.777,0.687l2.724,2.446c4.002,3.583,5.58,8.953,4.223,14.362
		c-2.1,8.365-10.432,15.08-22.287,17.961l-32.807,7.973c-5.308,1.296-8.854,0.086-14.194-2.797l-10.548-5.694l0.044,14.505
		L836.632,534.186z M840.993,480.151l0.02,48.456l13.398-3.264l-0.055-18.423l17.036,9.197c3.865,2.088,5.911,2.792,8.105,2.791
		c0.902,0,1.874-0.129,2.97-0.396l32.808-7.973c10.245-2.49,17.374-8.011,19.07-14.769c0.969-3.858-0.087-7.515-2.897-10.031
		l-3.468-3.104c-2.301-2.022-4.907-4.313-4.205-7.166c0.69-2.811,4.207-4.006,7.193-4.734l44.479-10.831
		c17.726-4.32,20.168-16.303,20.168-28.608l-0.005-393.563c0-20.258-11.396-33.348-29.033-33.348c-3.171,0-6.53,0.427-9.986,1.268
		L261.971,174.804c-0.906,0.22-1.768,0.331-2.564,0.331c-2.338,0-4.007-0.993-4.462-2.656c-0.222-0.811-0.4-2.896,2.735-4.753
		c5.134-3.041,8.007-12.387,6.029-19.608c-0.949-3.464-3.324-7.593-9.249-7.593c-1.173,0-2.45,0.166-3.794,0.491l-33.37,8.081
		l0.023,48.333l13.312-3.241l0.046-18.214l16.973,9.184c3.533,1.91,5.667,2.62,7.873,2.62c0.985,0,2.018-0.14,3.25-0.44
		l698.52-170.1c2.676-0.651,5.193-0.982,7.482-0.982c8.585,0,18.817,4.59,18.817,26.46l-0.022,377.035l0.002,1.35
		c0.019,12.526,0.035,24.356-17.378,28.579l-40.169,9.743c-13.49,3.271-17.4,10.687-18.529,14.813
		c-1.52,5.552,0.257,10.429,2.691,12.799l2.887,2.81c2.644,2.58,2.766,4.699,2.402,6.022c-0.52,1.899-2.241,3.216-5.113,3.913
		l-24.652,5.985c-0.903,0.221-1.766,0.331-2.561,0.331c-2.337,0-4.004-0.992-4.459-2.653c-0.222-0.811-0.399-2.896,2.737-4.753
		c5.132-3.043,8.002-12.4,6.019-19.632c-0.948-3.456-3.314-7.577-9.212-7.577c-1.179,0-2.463,0.168-3.816,0.498L840.993,480.151z
		 M797.413,524.117l6.479-25.795l3.878-0.94l6.493,22.638L797.413,524.117z M806.109,507.491l-2.675,10.65l5.355-1.303
		L806.109,507.491z M854.367,498.649V484.92l13.03-3.143c4.097-0.989,7.238,0.896,7.642,4.335c0.428,3.639-2.409,8.184-7.897,9.491
		L854.367,498.649z M858.752,488.373v4.726l7.373-1.757c3.204-0.765,4.729-3.273,4.561-4.717c-0.036-0.312-0.087-0.739-1.118-0.739
		c-0.335,0-0.719,0.051-1.141,0.153L858.752,488.373z M147.218,219.019l15.311-61.101l33.114-8.062l15.311,53.641l-21.206,5.161
		l-2.307-8.223l-13.495,3.285l-2.345,9.361L147.218,219.019z M166.138,161.551l-12.903,51.491l14.758-3.594l2.345-9.361
		l20.181-4.913l2.307,8.223l12.662-3.082l-12.902-45.204L166.138,161.551z M171.998,193.477l6.477-25.802l3.885-0.933l6.485,22.634
		L171.998,193.477z M180.693,176.842l-2.675,10.657l5.354-1.303L180.693,176.842z M230.667,167.702v-14.148l12.719-3.041
		c4.136-0.989,7.333,0.988,7.755,4.549c0.438,3.687-2.338,8.278-7.74,9.579L230.667,167.702z M235.05,157.013v5.127l7.326-1.762
		c3.16-0.76,4.593-3.276,4.413-4.799c-0.055-0.458-0.203-0.948-1.281-0.948c-0.326,0-0.697,0.049-1.102,0.146L235.05,157.013z"/>
	<path fill-rule="evenodd" clip-rule="evenodd" d="M416.427,389.549V233.59l96.392-23.435
		c57.989-14.099,83.394,88.045,12.231,105.378l-49.671,12.093v47.566L416.427,389.549L416.427,389.549z M475.378,261.514v20.528
		l28.771-7.007c11.988-2.918,15.895-24.397-3.666-19.634L475.378,261.514L475.378,261.514z"/>
	<path fill-rule="evenodd" clip-rule="evenodd" d="M723.198,201.166v20.527l28.773-7.007c11.989-2.921,15.895-24.397-3.662-19.634
		L723.198,201.166L723.198,201.166z M662.881,329.533V173.576l100.078-24.37c67.991-16.558,75.394,75.319,18.135,96.317
		c-6.313,2.318-4.198,8.68,5.837,6.237l32.551-7.928l0.039,47.556l-38.322,9.427c-12.773,3.14-22.389-2.146-29.984-8.815
		l-28.125-24.693v47.566L662.881,329.533L662.881,329.533z"/>
	<path fill-rule="evenodd" clip-rule="evenodd" d="M752.53,388.941l15.037-3.662l-6.434-22.444l-2.18,0.53L752.53,388.941
		L752.53,388.941z M713.423,433.254l25.985-103.542l41.249-10.046l26.051,90.873l-29.803,7.258l-4.248-14.755l-25.205,6.092
		l-4.221,16.862L713.423,433.254L713.423,433.254z"/>
	<path fill-rule="evenodd" clip-rule="evenodd" d="M662.881,418.904v-12.542l7.745-1.887c12.005-2.92,9.809,10.157,3.153,11.778
		L662.881,418.904L662.881,418.904z M662.881,376.571l9.51-2.318c7.772-1.892,6.645,8.575,2.146,9.671l-11.655,2.838V376.571
		L662.881,376.571z M627.911,356.865l-0.017,97.213l60.738-14.787c30.97-7.541,27.783-45.968,9.599-51.307
		c21.559-15.081,2.938-48.96-26.377-41.824L627.911,356.865L627.911,356.865z"/>
	<path fill-rule="evenodd" clip-rule="evenodd" d="M235.763,480.577l14.906-3.629c13.089-3.187,10.393,7.663,1.956,9.721
		l-16.862,4.104V480.577L235.763,480.577z M205.637,556.906l-0.005-97.213l44.745-10.893c42.255-10.29,58.349,41.408,20.834,57.928
		c-9.175,4.044-3.303,8.326,2.979,6.805l15.451-3.74l0.025,26.649l-21.095,5.14c-13.175,3.208-21.899-6.888-32.809-18.665
		l-0.025,26.658L205.637,556.906L205.637,556.906z"/>
</g>
</svg>
